{"title":"7500.2014.720p.H264.AAC.5.1ch.MP4.Raven","uid":10970932,"size":907562391,"categoryP":"video","categoryS":"hd___movies","magnet":"?xt=urn:btih:a3bac4768d7fbb228a56616a9def8465db580f1a&amp;dn=7500.2014.720p.H264.AAC.5.1ch.MP4.Raven&amp;tr=udp%3A%2F%2Ftracker.openbittorrent.com%3A80&amp;tr=udp%3A%2F%2Fopen.demonii.com%3A1337&amp;tr=udp%3A%2F%2Ftracker.coppersurfer.tk%3A6969&amp;tr=udp%3A%2F%2Fexodus.desync.com%3A6969","seeders":1,"leechers":0,"uploader":"Raven1969","files":-1,"time":1409790463,"description":"7500.2014.720p.H264.AAC.5.1ch.MP4.Raven.\n\n\n\n\n\n\nScreen images:\n\n\n\n &lt;a href=&quot;\nhttp://i.imgur.com/VIAEQHy.png&quot; rel=&quot;nofollow&quot; target=&quot;_NEW&quot;&gt;\nhttp://i.imgur.com/VIAEQHy.png&lt;/a&gt;\n\n\n\n\n\n &lt;a href=&quot;\nhttp://i.imgur.com/hkvLNm6.png&quot; rel=&quot;nofollow&quot; target=&quot;_NEW&quot;&gt;\nhttp://i.imgur.com/hkvLNm6.png&lt;/a&gt;\n\n\n\n\n\n &lt;a href=&quot;\nhttp://i.imgur.com/NuWVi7Z.png&quot; rel=&quot;nofollow&quot; target=&quot;_NEW&quot;&gt;\nhttp://i.imgur.com/NuWVi7Z.png&lt;/a&gt;\n\n\n\n\n\n &lt;a href=&quot;\nhttp://i.imgur.com/DrzWUyg.png&quot; rel=&quot;nofollow&quot; target=&quot;_NEW&quot;&gt;\nhttp://i.imgur.com/DrzWUyg.png&lt;/a&gt;\n\n\n\n\n\n\n\n\nIMDB: \n\n\n\n &lt;a href=&quot;\nhttp://www.imdb.com/title/tt1975159&quot; rel=&quot;nofollow&quot; target=&quot;_NEW&quot;&gt;\nhttp://www.imdb.com/title/tt1975159&lt;/a&gt;\n\n\n\n\n\n\nIMDB Rating 6.1\n\n\n\n\n\n\nStoryline:\n\nFlight 7500 departs Los Angeles International Airport bound for Tokyo. As the overnight flight makes its way over the Pacific Ocean during its ten-hour course, the passengers encounter what appears to be a supernatural force in the cabin.\n\n\n\n\n\n\nGeneral\n\n\nFormat                                   : MPEG-4\nFormat profile                           : Base Media\nCodec ID                                 : isom\nFile size                                : 866 MiB\nDuration                                 : 1h 19mn\nOverall bit rate mode                    : Variable\nOverall bit rate                         : 1 516 Kbps\nMovie name                               : 7500\nGenre                                    : Horror &amp; Thriller\nRecorded date                            : 2014-06-12\nCopyright                                : Fuck the MPAA\nTitle/Sort                               : 7500\nHDVideo                                  : Yes\nContentRating                            : mpaa|PG-13|\n\n\n\n\n\nVideo\n\n\n\nFormat                                   : AVC\nFormat/Info                              : Advanced Video Codec\nFormat profile                           : &lt;a class=&quot;__cf_email__&quot; href=&quot;/cdn-cgi/l/email-protection&quot; data-cfemail=&quot;276a464e49676b130917&quot;&gt;[email&amp;#160;protected]&lt;/a&gt;&lt;script cf-hash='f9e31' type=&quot;text/javascript&quot;&gt;\n/* &lt;![CDATA[ */!function(){try{var t=&quot;currentScript&quot;in document?document.currentScript:function(){for(var t=document.getElementsByTagName(&quot;script&quot;),e=t.length;e--;)if(t[e].getAttribute(&quot;cf-hash&quot;))return t[e]}();if(t&amp;&amp;t.previousSibling){var e,r,n,i,c=t.previousSibling,a=c.getAttribute(&quot;data-cfemail&quot;);if(a){for(e=&quot;&quot;,r=parseInt(a.substr(0,2),16),n=2;a.length-n;n+=2)i=parseInt(a.substr(n,2),16)^r,e+=String.fromCharCode(i);e=document.createTextNode(e),c.parentNode.replaceChild(e,c)}}}catch(u){}}();/* ]]&gt; */&lt;/script&gt;\nCodec ID/Info                            : Advanced Video Coding\nDuration                                 : 1h 19mn\nBit rate                                 : 1 320 Kbps\nMaximum bit rate                         : 10.9 Mbps\nWidth                                    : 1 280 pixels\nHeight                                   : 686 pixels\nDisplay aspect ratio                     : 1.85:1\nFrame rate mode                          : Constant\nFrame rate                               : 23.976 fps\nColor space                              : YUV\nScan type                                : Progressive\nStream size                              : 754 MiB (87%)\nWriting library                          : x264 \nLanguage                                 : English\n\n\n\n\n\nAudio\n\n\n\nFormat                                   : AAC\nFormat/Info                              : Advanced Audio Codec\nDuration                                 : 1h 19mn\nBit rate mode                            : Variable\nBit rate                                 : 192 Kbps\nMaximum bit rate                         : 315 Kbps\nOriginal Channel count                   : 6 channels\nChannel positions                        : Front: L C R, Side: L R, LFE\nSampling rate                            : 48.0 KHz\nCompression mode                         : Lossy\nStream size                              : 110 MiB (13%)\nLanguage                                 : English\n\n\n\nPLEASE COMMENT ON QUALITY AND SEED FOR AS LONG AS POSSIBLE TO KEEP THE TORRENT ALIVE :-","torrent":{"xt":"urn:btih:a3bac4768d7fbb228a56616a9def8465db580f1a","amp;dn":"7500.2014.720p.H264.AAC.5.1ch.MP4.Raven","amp;tr":["udp%3A%2F%2Ftracker.openbittorrent.com%3A80","udp%3A%2F%2Fopen.demonii.com%3A1337","udp%3A%2F%2Ftracker.coppersurfer.tk%3A6969","udp%3A%2F%2Fexodus.desync.com%3A6969"],"infoHash":"a3bac4768d7fbb228a56616a9def8465db580f1a","infoHashBuffer":{"type":"Buffer","data":[163,186,196,118,141,127,187,34,138,86,97,106,157,239,132,101,219,88,15,26]},"announce":[],"urlList":[]}}